# xmcd
#
# Track frame offsets: 
#        150
#        17932
#        29566
#        45180
#        63946
#        81946
#        100220
#        116535
#        149952
#        159752
#        176798
#        199619
#        213267
#        244231
#
# Disc length: 3486 seconds
#
# Revision: 0
# Processed by: cddbd v1.5.1PL0 Copyright (c) Steve Scherf et al.
# Submitted via: ExactAudioCopy v0.95a5
#
DISCID=c10d9c0e
DTITLE=Al Stewart - Live At The Block
DYEAR=1998
DGENRE=Acoustic
TTITLE0=Flying Sorcery
TTITLE1=Antarctica
TTITLE2=Timeless Skies
TTITLE3=Broadway Hotel
TTITLE4=Not The One
TTITLE5=On The Border
TTITLE6=Clifton in the Rain-A Small Fruit Song
TTITLE7=Roads to Moscow
TTITLE8=End of The Day
TTITLE9=Soho (Needless to Say)
TTITLE10=The Candidate
TTITLE11=Genie on a Table Top
TTITLE12=Apple Cidar Reconstitution
TTITLE13=Optical Illusion
EXTD=
EXTT0=
EXTT1=
EXTT2=
EXTT3=
EXTT4=
EXTT5=
EXTT6=
EXTT7=
EXTT8=
EXTT9=
EXTT10=
EXTT11=
EXTT12=
EXTT13=
PLAYORDER=
